inDegrees=no
num_controls=7
num_derivatives=13
num_iterations=164
num_multipliers=7
num_parameters=0
num_slacks=7
num_states=26
objective=5.360472
objective_accelerations=0.545350
objective_balance=0.048137
objective_effort=0.476914
objective_height=4.207701
objective_ligament=0.082369
solver_duration=1831.578294
status=Solve_Succeeded
success=true
DataType=double
version=3
OpenSimVersion=4.4-2022-07-23-0e9fedc
endheader
time	/jointset/ground_pelvis/pelvis_tilt/value	/jointset/ground_pelvis/pelvis_tx/value	/jointset/ground_pelvis/pelvis_ty/value	/jointset/hip_l/hip_flexion_l/value	/jointset/hip_l/hip_adduction_l/value	/jointset/hip_l/hip_rotation_l/value	/jointset/back/lumbar_extension/value	/jointset/patellofemoral_l/patellar_flexion_l/value	/jointset/knee_l/knee_flexion_l/value	/jointset/knee_l/knee_adduction_l/value	/jointset/knee_l/knee_rotation_l/value	/jointset/ankle_l/ankle_angle_l/value	/jointset/subtalar_l/subtalar_angle_l/value	/jointset/ground_pelvis/pelvis_tilt/speed	/jointset/ground_pelvis/pelvis_tx/speed	/jointset/ground_pelvis/pelvis_ty/speed	/jointset/hip_l/hip_flexion_l/speed	/jointset/hip_l/hip_adduction_l/speed	/jointset/hip_l/hip_rotation_l/speed	/jointset/back/lumbar_extension/speed	/jointset/patellofemoral_l/patellar_flexion_l/speed	/jointset/knee_l/knee_flexion_l/speed	/jointset/knee_l/knee_adduction_l/speed	/jointset/knee_l/knee_rotation_l/speed	/jointset/ankle_l/ankle_angle_l/speed	/jointset/subtalar_l/subtalar_angle_l/speed	/forceset/tau_hip_flexion_l	/forceset/tau_hip_adduction_l	/forceset/tau_hip_rotation_l	/forceset/tau_knee_flexion_l	/forceset/tau_ankle_angle_l	/forceset/tau_subtalar_angle_l	/forceset/tau_lumbar_extension	lambda_cid13_p0	lambda_cid13_p1	lambda_cid13_p2	lambda_cid13_p3	lambda_cid13_p4	lambda_cid13_p5	lambda_cid14_p0	/jointset/ground_pelvis/pelvis_tilt/accel	/jointset/ground_pelvis/pelvis_tx/accel	/jointset/ground_pelvis/pelvis_ty/accel	/jointset/hip_l/hip_flexion_l/accel	/jointset/hip_l/hip_adduction_l/accel	/jointset/hip_l/hip_rotation_l/accel	/jointset/back/lumbar_extension/accel	/jointset/patellofemoral_l/patellar_flexion_l/accel	/jointset/knee_l/knee_flexion_l/accel	/jointset/knee_l/knee_adduction_l/accel	/jointset/knee_l/knee_rotation_l/accel	/jointset/ankle_l/ankle_angle_l/accel	/jointset/subtalar_l/subtalar_angle_l/accel	gamma_cid13_p0	gamma_cid13_p1	gamma_cid13_p2	gamma_cid13_p3	gamma_cid13_p4	gamma_cid13_p5	gamma_cid14_p0
1	-0.7338037989716408	-0.1792158193917279	0.608951647764108	1.968801970669028	-0.3126190667982268	0.06040905963692213	-0.4363305454017514	1.012530381584277	1.01253038158319	-0.1745274719488174	0.1745304574917427	-0.04659247309297414	-0.07204646609704028	-0.01172046484741501	0.0003191084446177559	-0.00293740600422627	0.01696011085703553	0.0003712105726268616	0.002657346596401101	-1.872982224838714e-06	0.006922455022235398	0.006922455022235493	1.891036659010602e-05	-8.318600545715586e-06	0.002225782548875606	0.0007128337627518999	-0.4758970655735376	-0.001551018586420617	-0.01917459583562501	-0.2080521494440895	0.2273456502445833	0.04442204011227716	0.3725650677585199	26.23872550829774	-23.73770077134173	3.211823701218746	-0.878038590679975	-727.2434732259305	-49.71691819030949	-8.41111502412441	2.303541003916772	0.4821732724294233	1.593319642024634	-6.413890794200607	-0.1499619586524428	-1.415537409730864	-0.01952143652500843	-3.942074412154368	-3.942074412154316	-0.02809223556360073	0.009843100164322159	-0.05306558145825219	-0.1113351454938467	2.595359885611504e-10	1.830163414006354e-09	-2.656925143889002e-09	6.014212292216093e-10	4.735835371648922e-10	-1.300906223672876e-09	7.491118703100223e-10
1.01	-0.7338067259535663	-0.179188609281473	0.6090018158876805	1.968651976009183	-0.3126221635957482	0.06036450963826043	-0.436330554538539	1.012402566879653	1.012402566878561	-0.174527305117417	0.1745303876837259	-0.0465728014461741	-0.07204422228308892	0.01113522368244854	0.005123721975347114	0.01296833649050516	-0.04695368096100732	-0.0009896428052230653	-0.01156545156966954	3.794945511585609e-07	-0.03248154501722086	-0.03248154501722048	1.37740075975659e-05	-5.197455463908011e-06	0.00170697681289593	-0.0002635218003219728	-0.4757727126110498	-0.001518574562022819	-0.01917604379201776	-0.2080142426453312	0.2272880576594164	0.04444112776972709	0.3724885571901925	26.22916376123487	-23.74506891813793	3.213857886893023	-0.8895681284747412	-727.1180985306084	-49.73553938787623	-8.41904904200692	2.276605721410112	0.4797265220674068	1.588796840624132	-6.379319497273689	-0.1290085210870781	-1.42536922961798	0.01014867014769313	-3.938984604922999	-3.938984604922947	0.01317237020629885	-0.004389257366096381	-0.05152333278768649	-0.09070392905188848	-1.164217778694958e-09	-4.319516621018189e-09	1.03000956037858e-08	-6.209069436691841e-10	-2.858069676088642e-09	1.137865726598603e-08	-2.742140462265222e-09
1.02	-0.7335810914614191	-0.1791133288101761	0.6092109604936852	1.967863004206819	-0.3126388412257954	0.06017778801602163	-0.4363305311344947	1.011880827813619	1.011880827812526	-0.1745272103083498	0.1745303619113464	-0.04655836490935795	-0.07205172565823595	0.03399182996787104	0.009933180653023403	0.02885789048228919	-0.1108353176457526	-0.002344955932504091	-0.02577697811865417	4.635186079020416e-06	-0.07186241725994924	-0.07186241725994894	4.50589954072445e-06	4.885277690121726e-07	0.001178760552121982	-0.001236604056904897	-0.4756483596485786	-0.001486130537628167	-0.01917749174841148	-0.2079763358465727	0.2272304650742503	0.04446021542717413	0.3724120466218462	26.21547688710491	-23.75328584946816	3.217822153796486	-0.9108184140355227	-727.0594581333269	-49.73987051501338	-8.451393679079626	2.303724555028565	0.4831423018188011	1.590081941435153	-6.407459767541082	-0.1488539085386178	-1.413283086313648	-0.0191207935747242	-3.937448852808798	-3.937448852808818	-0.02891858537640211	0.01035606779448762	-0.05494768641710843	-0.1106804841956141	-2.523551393086133e-09	-1.02993371591059e-08	2.297436377636779e-08	-1.908845180756075e-09	-6.102961283370458e-09	2.378091208918191e-08	-6.138897563754815e-09
1.03	-0.7331268647054459	-0.1789899097012873	0.6095788632275367	1.966435473327018	-0.3126690112374328	0.05984905326598136	-0.436330486875907	1.010965483000884	1.010965483000291	-0.1745272310442789	0.174530405355325	-0.04654928225333772	-0.0720689170760893	0.05685532596492109	0.01475336049532161	0.04471432398095342	-0.1746554265863427	-0.00368423516151629	-0.03996403888477005	1.895737579928898e-06	-0.1111941247715899	-0.1111941247715896	-8.232020563740067e-06	8.279915684518231e-06	0.0006338213615828648	-0.002197909121126581	-0.4751325237595153	-0.00140884371671153	-0.01919092919912192	-0.2079459801082804	0.2271689411404794	0.04451921888871363	0.3721019053508519	26.21963925037329	-23.78401599753095	3.227719877434365	-0.95797471582189	-726.7112495287603	-49.8020502225942	-8.508175934243766	2.277931605291574	0.4818630837316702	1.582172318985411	-6.366973127511466	-0.1257454871517209	-1.420535930302722	0.008801359639002916	-3.929166695526807	-3.929166695526777	0.01260832668557288	-0.004006694240636227	-0.05485861979523535	-0.0882916302942051	-3.882227658978685e-09	-1.627742443702078e-08	3.564574671859169e-08	-3.197452908293948e-09	-9.346967568142357e-09	3.618033723210776e-08	-9.534690428192512e-09
1.04	-0.7324439490928562	-0.1788182073423159	0.6101050799493548	1.964370204023773	-0.3127124301527741	0.05937862423656851	-0.4363305396356915	1.009657194113997	1.009657194113899	-0.17452736721502	0.1745305272395102	-0.04654576730610759	-0.07209560876713669	0.07972960129190766	0.01958983066951687	0.06052068807573512	-0.2383830023346701	-0.004994736673295401	-0.05411583399257448	-1.476850585613069e-05	-0.1504512320906378	-0.150451232090639	-1.858106014697727e-05	1.61765623715614e-05	6.521879412666304e-05	-0.003136658695699263	-0.4746166878704386	-0.001331556895796583	-0.01920436664983298	-0.2079156243699971	0.2271074172067018	0.04457822235025032	0.3717917640798756	26.21962528256996	-23.81558115406371	3.239539988241111	-1.01453599039199	-726.4304409780522	-49.85024787110535	-8.589332922673336	2.305880421015857	0.4864003681982152	1.580068060658648	-6.388953129088526	-0.1430983650919876	-1.406229954651377	-0.02190575256193281	-3.922528814290267	-3.922528814290572	-0.0284408092721221	0.01037711954879582	-0.05968036180051212	-0.106169386265799	-5.188120281537455e-09	-2.204745303867904e-08	4.775302771378729e-08	-4.348806061551935e-09	-1.245765407363406e-08	4.771203746084322e-08	-1.27755762413009e-08
1.05	-0.7315322477886439	-0.1785980395724415	0.6107890487897486	1.961668254049035	-0.3127687810472382	0.05876691384779845	-0.4363307897242381	1.007956797640167	1.007956797640243	-0.1745276125686231	0.1745307243374589	-0.04654808108260235	-0.07213155259568772	0.102610257376843	0.02444821490702978	0.0762586291094534	-0.3019774112364803	-0.0062665105725569	-0.06821551435264653	-3.254663133593729e-05	-0.1896069067318014	-0.1896069067318152	-2.902935380351865e-05	2.217077039914569e-05	-0.0005341669420256091	-0.004044863606257637	-0.4737421962698524	-0.001205157588658899	-0.01922760767915899	-0.2078715783156936	0.2270204574856624	0.04468029008095763	0.3712772235143205	26.23006939125753	-23.8695825442435	3.257109697157483	-1.095301300420391	-725.8716171671057	-49.95423251098261	-8.694871616377387	2.279095819355384	0.486230081075942	1.568486346506705	-6.340249956625809	-0.1178809851956514	-1.410241579421953	0.008691545341284948	-3.908910162440993	-3.90891016244267	0.01286648090211208	-0.004465866349676695	-0.06099525462294584	-0.08206226116484883	-6.492363415242045e-09	-2.781097980670428e-08	5.984268052313826e-08	-5.495870009363675e-09	-1.556417433602325e-08	5.921662128601025e-08	-1.601162120905524e-08
